# xmcd CD database file
#
# Track frame offsets:
#	150
#	21950
#	48000
#	67912
#	91762
#	107700
#	132937
#	171050
#
# Disc length: 2608 seconds
#
# Revision: 0
# Processed by: cddbd v1.5.2PL0 Copyright (c) Steve Scherf et al.
# Submitted via: CDex 1.70beta3
#
DISCID=5a0a2e08
DTITLE=Billy Taylor - Sleeping Bee
DYEAR=1969
DGENRE=Jazz
TTITLE0=La Petite Mambo
TTITLE1=Theodora
TTITLE2=Pharaphrase
TTITLE3=Bye Y'all
TTITLE4=Don't Go Down South
TTITLE5=Brother Where Are You?
TTITLE6=There Will Never Be Another You
TTITLE7=Sleeping Bee
EXTD=YEAR: 1969
EXTT0=
EXTT1=
EXTT2=
EXTT3=
EXTT4=
EXTT5=
EXTT6=
EXTT7=
PLAYORDER=
